<?xml version="1.0" encoding="UTF-8" standalone="no"?>
<svg
   xmlns:dc="http://purl.org/dc/elements/1.1/"
   xmlns:cc="http://creativecommons.org/ns#"
   xmlns:rdf="http://www.w3.org/1999/02/22-rdf-syntax-ns#"
   xmlns:svg="http://www.w3.org/2000/svg"
   xmlns="http://www.w3.org/2000/svg"
   viewBox="0 0 500 500"
   height="500"
   width="500"
   xml:space="preserve"
   id="svg2"
   version="1.1"><metadata
     id="metadata8"><rdf:RDF><cc:Work
         rdf:about=""><dc:format>image/svg+xml</dc:format><dc:type
           rdf:resource="http://purl.org/dc/dcmitype/StillImage" /></cc:Work></rdf:RDF></metadata><defs
     id="defs6"><clipPath
       id="clipPath14"
       clipPathUnits="userSpaceOnUse"><path
         id="path12"
         d="M 0,8.039989 H 375 V 383.03998 H 0 Z" /></clipPath><clipPath
       id="clipPath24"
       clipPathUnits="userSpaceOnUse"><path
         style="clip-rule:evenodd"
         id="path22"
         d="M 0,0 H 1562.5 V 1562.5 H 0 Z" /></clipPath><clipPath
       id="clipPath36"
       clipPathUnits="userSpaceOnUse"><path
         style="clip-rule:evenodd"
         id="path34"
         d="M 0,0 H 1562.5 V 1562.5 H 0 Z" /></clipPath><clipPath
       id="clipPath48"
       clipPathUnits="userSpaceOnUse"><path
         id="path46"
         d="M 0,0 H 1562.5 V 1562.5 H 0 Z" /></clipPath><clipPath
       id="clipPath54"
       clipPathUnits="userSpaceOnUse"><path
         id="path52"
         d="M 0,0 H 1562.5 V 1562.5 H 0 Z" /></clipPath><clipPath
       id="clipPath60"
       clipPathUnits="userSpaceOnUse"><path
         id="path58"
         d="M 976.61316,618.33398 H 1334.9529 V 976.6737 H 976.61316 Z" /></clipPath><clipPath
       id="clipPath66"
       clipPathUnits="userSpaceOnUse"><path
         id="path64"
         d="m 1155.7831,618.33398 c -98.9529,0 -179.16994,80.21711 -179.16994,179.16987 0,98.95282 80.21704,179.16986 179.16994,179.16986 98.9527,0 179.1698,-80.21704 179.1698,-179.16986 0,-98.95276 -80.2171,-179.16987 -179.1698,-179.16987 z" /></clipPath><clipPath
       id="clipPath78"
       clipPathUnits="userSpaceOnUse"><path
         style="clip-rule:evenodd"
         id="path76"
         d="m 1147.7073,672.96307 h 150 v 278.125 h -150 z" /></clipPath><clipPath
       id="clipPath92"
       clipPathUnits="userSpaceOnUse"><path
         style="clip-rule:evenodd"
         id="path90"
         d="M 0,0 H 1562.5 V 1562.5 H 0 Z" /></clipPath></defs><g
     clip-path="url(#clipPath14)"
     transform="matrix(1.3333333,0,0,-1.3333333,0,510.71997)"
     id="g10"><g
       transform="matrix(0.23999999,0,0,-0.23999999,0,383.03998)"
       id="g16"><g
         id="g18"><g
           clip-path="url(#clipPath24)"
           id="g20"><g
             transform="scale(3.125)"
             id="g26"><path
               id="path28"
               style="fill:#ffffff;fill-opacity:1;fill-rule:nonzero;stroke:none"
               d="M 0,0 H 500 V 500 H 0 Z" /></g></g></g><g
         id="g30"><g
           clip-path="url(#clipPath36)"
           id="g32"><g
             transform="scale(3.125)"
             id="g38"><path
               id="path40"
               style="fill:#008080;fill-opacity:1;fill-rule:nonzero;stroke:none"
               d="M 0,0 H 500 V 500 H 0 Z" /></g></g></g><g
         id="g42"><g
           clip-path="url(#clipPath48)"
           id="g44"><g
             clip-path="url(#clipPath54)"
             id="g50"><g
               clip-path="url(#clipPath60)"
               id="g56"><g
                 clip-path="url(#clipPath66)"
                 id="g62"><g
                   transform="matrix(1.3997647,0,0,1.3997647,976.61316,618.33398)"
                   id="g68"><path
                     id="path70"
                     style="fill:#ffde59;fill-opacity:1;fill-rule:nonzero;stroke:none"
                     d="M 0,0 H 256 V 256 H 0 Z" /></g></g></g></g></g></g><g
         id="g72"><g
           clip-path="url(#clipPath78)"
           id="g74"><g
             transform="matrix(0.15885283,0,0,0.15885283,1148.2633,673.49005)"
             id="g80"><path
               id="path82"
               style="fill:#008080;fill-opacity:1;fill-rule:nonzero;stroke:none"
               d="M 786.98901,191.114 446.26102,750.74402 711.42603,804.75201 406.57904,1255.6801 262.72903,1579.577 c -5.96301,13.427 12.098,24.3581 21.228,12.8481 L 925.54706,783.54205 c 7.38098,-9.30597 0.75,-23.02099 -11.12799,-23.01501 l -267.64197,0.143 159.67902,-561.04901 c 3.41485,-12.00602 -12.9751,-19.17003 -19.46711,-8.50703 z" /><path
               id="path84"
               style="fill:#008080;fill-opacity:1;fill-rule:nonzero;stroke:none"
               d="m 68.296997,1747.139 c -4.310001,0 -8.333,-1.0059 -12.357002,-3.0169 -11.207001,-6.178 -16.379997,-19.828 -11.781998,-31.897 l 257.476983,-674.439 c 5.173,-13.219 19.828,-19.828 33.33401,-14.799 13.219,5.029 19.82801,19.828 14.943,33.19 L 161.69,1549.002 694.46002,815.36597 447.328,815.50995 c -8.621,0 -16.66699,-4.16699 -21.26501,-11.35101 -4.88501,-7.03998 -5.74701,-16.09198 -2.586,-24.138 L 652.505,217.50891 46.744999,1062.21 c -8.333,11.6379 -24.138001,14.368 -35.919998,6.035 -11.49500012,-8.333 -14.3680003,-24.426 -6.0350001,-35.92 L 737.276,10.752 C 745.03497,0.11999989 759.69,-3.0410004 770.60999,3.1370001 782.10498,9.4589996 786.98999,23.251999 782.10498,35.465 L 485.547,764.07202 745.03503,763.78503 c 9.77002,0 18.67798,5.46003 22.98902,14.081 4.31,8.62097 3.448,18.966 -2.01203,26.72497 L 88.987,1736.506 c -4.885003,6.897 -12.643998,10.633 -20.690003,10.633 z" /></g></g></g><g
         id="g86"><g
           clip-path="url(#clipPath92)"
           id="g88"><g
             transform="matrix(3.125,0,0,3.125,264.79715,654.6875)"
             id="g94"><text
               id="text98"
               style="font-variant:normal;font-weight:900;font-size:58.47999954px;font-family:OpenSauceOne;-inkscape-font-specification:OpenSauceOne-Black;writing-mode:lr-tb;fill:#000000;fill-opacity:1;fill-rule:nonzero;stroke:none"
               transform="translate(0.03125,62)"><tspan
                 id="tspan96"
                 y="0"
                 x="0 41.629807 57.88414 91.211365 129.09917 182.01344 220.60286 244.57507">Sizemore</tspan></text>
</g><g
             transform="matrix(3.125,0,0,3.125,996.78754,856.3963)"
             id="g100"><text
               id="text104"
               style="font-variant:normal;font-weight:bold;font-size:15.60000038px;font-family:OpenSauceOne;-inkscape-font-specification:OpenSauceOne-Bold;writing-mode:lr-tb;fill:#000000;fill-opacity:1;fill-rule:nonzero;stroke:none"
               transform="translate(8.0625,16)"><tspan
                 id="tspan102"
                 y="0"
                 x="0 9.8240662 19.039978 28.115555">Taxi</tspan></text>
</g></g></g></g><path
       id="path106"
       style="fill:#000000;fill-opacity:0;fill-rule:nonzero;stroke:none"
       d="m 275.44977,154.67836 h 35.75546 v 66.85048 h -35.75546 z" /></g></svg>